<svg width="91" height="93" viewBox="0 0 91 93" fill="none" xmlns="http://www.w3.org/2000/svg">
<g clip-path="url(#clip0_318_232)">
<path d="M87.3207 61.4367L89.8536 48.7717L57.5315 32.6106V18.886C57.5354 15.9481 56.8913 13.0455 55.6452 10.3849C54.3991 7.72429 52.5816 5.37123 50.3222 3.49327C48.932 2.33438 47.1793 1.69971 45.3694 1.69971C43.5594 1.69971 41.8068 2.33438 40.4165 3.49327C38.1572 5.37123 36.3397 7.72429 35.0936 10.3849C33.8475 13.0455 33.2034 15.9481 33.2072 18.886V32.6106L0.885132 48.7717L3.41809 61.4367L33.2893 57.541L34.7594 72.9763L21.0451 78.8533V91.5H69.6937V78.8533L55.9793 72.9757L57.4494 57.5404L87.3207 61.4367ZM63.6126 82.8632V85.4189H27.1261V82.8632L41.2339 76.8167L39.2883 56.3894V50.6253L8.26661 54.6715L7.75903 52.1337L39.2883 36.3691V18.886C39.2857 16.8398 39.7344 14.8183 40.6023 12.9653C41.4702 11.1123 42.736 9.47354 44.3096 8.16563C44.607 7.91754 44.9821 7.78166 45.3694 7.78166C45.7567 7.78166 46.1318 7.91754 46.4292 8.16563C48.0028 9.47354 49.2686 11.1123 50.1365 12.9653C51.0044 14.8183 51.453 16.8398 51.4505 18.886V36.3691L82.9797 52.1337L82.4722 54.6715L51.4505 50.6253V56.3894L49.5049 76.8167L63.6126 82.8632Z" fill="url(#paint0_linear_318_232)"/>
</g>
<defs>
<linearGradient id="paint0_linear_318_232" x1="1.18017" y1="47.3108" x2="89.964" y2="47.3108" gradientUnits="userSpaceOnUse">
<stop stop-color="#FF8405"/>
<stop offset="1" stop-color="#FFAF40"/>
</linearGradient>
<clipPath id="clip0_318_232">
<rect width="90" height="91.2162" fill="white" transform="translate(0.166626 0.891907)"/>
</clipPath>
</defs>
</svg>
