<svg width="23" height="22" viewBox="0 0 23 22" fill="none" xmlns="http://www.w3.org/2000/svg">
<g clip-path="url(#clip0_290_271)">
<path d="M11.6536 7.6001C9.78125 7.6001 8.2533 9.12805 8.2533 11.0004C8.2533 12.8727 9.78125 14.4006 11.6536 14.4006C13.5259 14.4006 15.0538 12.8727 15.0538 11.0004C15.0538 9.12805 13.5259 7.6001 11.6536 7.6001Z" fill="#4D38A0"/>
<path fill-rule="evenodd" clip-rule="evenodd" d="M21.8523 10.4851C21.8521 10.6566 21.8519 10.8283 21.8519 11.0002C21.8519 11.1924 21.8522 11.3844 21.8525 11.5761C21.8543 12.7894 21.8561 13.9954 21.7856 15.2091C21.7065 16.8416 21.3366 18.2879 20.1403 19.4843C18.9465 20.6781 17.4976 21.0505 15.8651 21.1296C14.6311 21.199 13.405 21.1977 12.1712 21.1963C11.9997 21.1961 11.828 21.1959 11.6562 21.1959C11.4847 21.1959 11.3133 21.1961 11.1421 21.1963C9.90998 21.1977 8.68356 21.199 7.4473 21.1296C5.81476 21.0505 4.36844 20.6806 3.17209 19.4843C1.9783 18.2905 1.60587 16.8416 1.5268 15.2091C1.45737 13.9751 1.45873 12.7469 1.4601 11.5143C1.46029 11.3431 1.46048 11.1717 1.46048 11.0002C1.46048 10.8287 1.46029 10.6573 1.4601 10.4861C1.45873 9.25395 1.45737 8.02754 1.5268 6.7913C1.60587 5.15876 1.97575 3.71243 3.17209 2.51609C4.36589 1.32229 5.81476 0.949868 7.4473 0.870792C8.68127 0.801367 9.90736 0.802724 11.1411 0.80409C11.3127 0.80428 11.4843 0.80447 11.6562 0.80447C11.8277 0.80447 11.9991 0.80428 12.1703 0.80409C13.4024 0.802724 14.6288 0.801365 15.8651 0.870792C17.4976 0.949868 18.944 1.31974 20.1403 2.51609C21.3341 3.70988 21.7065 5.15876 21.7856 6.7913C21.855 8.02524 21.8537 9.25132 21.8523 10.4851ZM6.42186 11.0002C6.42186 13.8954 8.75843 16.232 11.6536 16.232C14.5488 16.232 16.8854 13.8954 16.8854 11.0002C16.8854 8.10498 14.5488 5.76841 11.6536 5.76841C8.75843 5.76841 6.42186 8.10498 6.42186 11.0002ZM15.8778 5.55414C15.8778 6.23011 16.4237 6.77599 17.0997 6.77599C17.2602 6.7762 17.4192 6.74473 17.5675 6.6834C17.7158 6.62206 17.8506 6.53207 17.9641 6.41857C18.0776 6.30507 18.1676 6.17029 18.2289 6.02196C18.2903 5.87363 18.3217 5.71465 18.3215 5.55414C18.3215 4.87817 17.7757 4.33229 17.0997 4.33229C16.4237 4.33229 15.8778 4.87817 15.8778 5.55414Z" fill="#4D38A0"/>
</g>
<defs>
<clipPath id="clip0_290_271">
<rect width="21.3714" height="21.3714" fill="white" transform="translate(0.967896 0.314453)"/>
</clipPath>
</defs>
</svg>
