<svg width="14" height="12" viewBox="0 0 14 12" fill="none" xmlns="http://www.w3.org/2000/svg">
<g clip-path="url(#clip0_354_220)">
<path d="M11.1728 1.29273C11.377 1.09831 11.6488 0.990818 11.9307 0.992951C12.2127 0.995085 12.4828 1.10667 12.6841 1.30417C12.8853 1.50166 13.002 1.76962 13.0095 2.0515C13.0169 2.33337 12.9146 2.60712 12.724 2.81498L6.9395 10.0493C6.84004 10.1564 6.71999 10.2424 6.58653 10.302C6.45308 10.3617 6.30896 10.3939 6.1628 10.3966C6.01664 10.3993 5.87143 10.3725 5.73586 10.3178C5.60028 10.2631 5.47713 10.1816 5.37377 10.0782L1.53772 6.24219C1.43089 6.14265 1.34521 6.02261 1.28578 5.88924C1.22635 5.75586 1.1944 5.61188 1.19182 5.46588C1.18924 5.31989 1.2161 5.17487 1.27079 5.03948C1.32547 4.90409 1.40687 4.7811 1.51012 4.67785C1.61337 4.5746 1.73636 4.49321 1.87175 4.43852C2.00714 4.38384 2.15215 4.35698 2.29815 4.35956C2.44414 4.36213 2.58812 4.39409 2.7215 4.45352C2.85488 4.51294 2.97492 4.59863 3.07446 4.70546L6.11024 7.73979L11.1452 1.32463C11.1543 1.31347 11.164 1.30282 11.1742 1.29273H11.1728Z" fill="#FFAF40"/>
</g>
<defs>
<clipPath id="clip0_354_220">
<rect width="13" height="10.6364" fill="white" transform="translate(0.5 0.681885)"/>
</clipPath>
</defs>
</svg>
