<svg width="25" height="25" viewBox="0 0 25 25" fill="none" xmlns="http://www.w3.org/2000/svg">
<path d="M15.7475 16.61L17.4275 14.93C17.6538 14.7065 17.94 14.5536 18.2516 14.4897C18.5631 14.4257 18.8865 14.4537 19.1825 14.57L21.23 15.3875C21.5291 15.5089 21.7856 15.7161 21.9671 15.9831C22.1486 16.25 22.247 16.5647 22.25 16.8875V20.6375C22.2482 20.8571 22.2021 21.074 22.1143 21.2753C22.0265 21.4766 21.8989 21.658 21.7391 21.8087C21.5793 21.9593 21.3907 22.0761 21.1847 22.1519C20.9786 22.2278 20.7593 22.2611 20.54 22.25C6.19248 21.3575 3.29748 9.2075 2.74998 4.5575C2.72456 4.32915 2.74778 4.09801 2.81811 3.87928C2.88844 3.66055 3.00429 3.45919 3.15803 3.28845C3.31177 3.11771 3.49992 2.98145 3.7101 2.88865C3.92028 2.79584 4.14772 2.74859 4.37748 2.75H7.99998C8.32324 2.75096 8.63881 2.8486 8.90612 3.03037C9.17344 3.21214 9.38025 3.46973 9.49998 3.77L10.3175 5.8175C10.4377 6.1123 10.4683 6.43598 10.4056 6.74811C10.3429 7.06024 10.1897 7.34697 9.96498 7.5725L8.28498 9.2525C8.28498 9.2525 9.25248 15.8 15.7475 16.61Z" fill="#4D38A0"/>
</svg>
