<svg width="25" height="25" viewBox="0 0 25 25" fill="none" xmlns="http://www.w3.org/2000/svg">
<g clip-path="url(#clip0_155_226)">
<path d="M18.0295 15.1064C18.0295 16.1144 18.3163 16.5164 19.0663 16.5164C20.7379 16.5164 21.8023 14.3864 21.8023 10.844C21.8023 5.42959 17.8567 2.83759 12.9307 2.83759C7.86314 2.83759 3.25394 6.23599 3.25394 12.6584C3.25394 18.7928 7.28594 22.1336 13.4779 22.1336C15.5803 22.1336 16.9915 21.9032 19.1503 21.1832L19.6135 23.1116C17.4823 23.804 15.2047 24.0044 13.4491 24.0044C5.32754 24.0044 0.977539 19.5404 0.977539 12.6572C0.977539 5.71639 6.01874 0.993195 12.9595 0.993195C20.1883 0.993195 24.0175 5.31319 24.0175 10.6124C24.0175 15.1052 22.6075 18.5324 18.1723 18.5324C16.1551 18.5324 14.8315 17.726 14.6587 15.9392C14.1403 17.9264 12.7579 18.5324 10.8847 18.5324C8.37914 18.5324 6.27674 16.6016 6.27674 12.7148C6.27674 8.79799 8.12114 6.37879 11.4331 6.37879C13.1899 6.37879 14.2843 7.06999 14.7715 8.16439L15.6079 6.63799H18.0271V15.1064H18.0295ZM14.4883 11.3048C14.4883 9.72199 13.3063 9.05839 12.3271 9.05839C11.2615 9.05839 10.0819 9.92119 10.0819 12.4568C10.0819 14.4728 10.9747 15.596 12.3271 15.596C13.2775 15.596 14.4883 14.9912 14.4883 13.3208V11.3048Z" fill="#4D38A0"/>
</g>
<defs>
<clipPath id="clip0_155_226">
<rect width="24" height="24" fill="white" transform="translate(0.5 0.5)"/>
</clipPath>
</defs>
</svg>
