<svg width="28" height="51" viewBox="0 0 28 51" fill="none" xmlns="http://www.w3.org/2000/svg">
<path d="M1.30129 0.597581C0.919689 0.988259 0.706055 1.51271 0.706055 2.05883C0.706055 2.60495 0.919689 3.1294 1.30129 3.52008L22.6207 25.3907L1.30129 47.257C0.919689 47.6476 0.706055 48.1721 0.706055 48.7182C0.706055 49.2643 0.919689 49.7888 1.30129 50.1795C1.48677 50.37 1.70854 50.5214 1.9535 50.6248C2.19846 50.7282 2.46165 50.7814 2.72754 50.7814C2.99342 50.7814 3.25661 50.7282 3.50157 50.6248C3.74654 50.5214 3.9683 50.37 4.15379 50.1795L26.825 26.9176C27.2232 26.5091 27.4461 25.9612 27.4461 25.3907C27.4461 24.8202 27.2232 24.2723 26.825 23.8638L4.15379 0.601957C3.9683 0.411454 3.74654 0.260041 3.50157 0.156653C3.25661 0.0532657 2.99342 0 2.72754 0C2.46165 0 2.19846 0.0532657 1.9535 0.156653C1.70854 0.260041 1.48677 0.411454 1.30129 0.601957V0.597581Z" fill="#FFD7A0" fill-opacity="0.5"/>
</svg>
