<svg width="91" height="93" viewBox="0 0 91 93" fill="none" xmlns="http://www.w3.org/2000/svg">
<g clip-path="url(#clip0_318_466)">
<path fill-rule="evenodd" clip-rule="evenodd" d="M15.074 29.397H53.9629C54.6996 29.397 55.4062 29.0967 55.9271 28.5621C56.4481 28.0275 56.7407 27.3025 56.7407 26.5465V15.1445C56.7407 14.3885 56.4481 13.6634 55.9271 13.1288C55.4062 12.5943 54.6996 12.2939 53.9629 12.2939H15.074C14.3373 12.2939 13.6308 12.5943 13.1099 13.1288C12.5889 13.6634 12.2963 14.3885 12.2963 15.1445V26.5465C12.2963 27.3025 12.5889 28.0275 13.1099 28.5621C13.6308 29.0967 14.3373 29.397 15.074 29.397ZM51.1852 23.6959H17.8518V17.8239H51.1852V23.6959Z" fill="url(#paint0_linear_318_466)"/>
<path fill-rule="evenodd" clip-rule="evenodd" d="M15.074 35.326H53.9629C54.6996 35.326 55.4062 35.6264 55.9271 36.1609C56.4481 36.6955 56.7407 37.4206 56.7407 38.1766V41.6542L46.6296 52.201H15.074C14.3373 52.201 13.6308 51.9007 13.1099 51.3662C12.5889 50.8316 12.2963 50.1065 12.2963 49.3505V38.1766C12.2963 37.4206 12.5889 36.6955 13.1099 36.1609C13.6308 35.6264 14.3373 35.326 15.074 35.326ZM17.8518 46.5H51.1852V40.799H17.8518V46.5Z" fill="url(#paint1_linear_318_466)"/>
<path d="M26.3518 85.0104V84.8393L27.2407 80.8771H6.74074V6.59292H62.2963V35.8106L67.8518 30.4232V3.74241C67.8518 2.98641 67.5592 2.26137 67.0383 1.7268C66.5173 1.19223 65.8108 0.891907 65.0741 0.891907H3.96296C3.22625 0.891907 2.51971 1.19223 1.99877 1.7268C1.47784 2.26137 1.18518 2.98641 1.18518 3.74241V83.5566C1.18518 84.3126 1.47784 85.0376 1.99877 85.5722C2.51971 86.1068 3.22625 86.4071 3.96296 86.4071H26.1852C26.2081 85.938 26.2638 85.4712 26.3518 85.0104V85.0104Z" fill="url(#paint2_linear_318_466)"/>
<path d="M56.7408 49.8351L54.5741 52.087C55.1116 51.9733 55.6043 51.6987 55.9899 51.2979C56.3755 50.8971 56.6368 50.3881 56.7408 49.8351Z" fill="url(#paint3_linear_318_466)"/>
<path d="M12.2963 71.9835C12.2963 72.7395 12.5889 73.4646 13.1099 73.9991C13.6308 74.5337 14.3373 74.834 15.074 74.834H28.5185L29.3518 71.1284L29.7129 69.5606V69.4181H17.8518V63.6031H35.4629L41.0185 57.902H15.074C14.3373 57.902 13.6308 58.2024 13.1099 58.7369C12.5889 59.2715 12.2963 59.9965 12.2963 60.7525V71.9835Z" fill="url(#paint4_linear_318_466)"/>
<path d="M88.6574 42.7089L79.2963 33.1027C78.8809 32.6752 78.3873 32.336 77.8439 32.1046C77.3005 31.8732 76.718 31.754 76.1297 31.754C75.5413 31.754 74.9588 31.8732 74.4154 32.1046C73.872 32.336 73.3784 32.6752 72.963 33.1027L34.8797 72.4111L31.7408 86.1221C31.6233 86.7136 31.6206 87.3231 31.733 87.9156C31.8454 88.5082 32.0706 89.0722 32.3957 89.5753C32.7208 90.0784 33.1395 90.5107 33.6277 90.8475C34.1159 91.1843 34.6641 91.419 35.2408 91.538C35.5271 91.5676 35.8156 91.5676 36.1019 91.538C36.4422 91.595 36.7893 91.595 37.1297 91.538L50.6019 88.488L88.6574 49.3505C89.0732 48.9267 89.4031 48.4226 89.6283 47.8673C89.8534 47.3121 89.9693 46.7166 89.9693 46.1152C89.9693 45.5138 89.8534 44.9184 89.6283 44.3631C89.4031 43.8079 89.0732 43.3038 88.6574 42.8799V42.7089ZM47.7686 83.3001L37.6019 85.609L40.0741 75.2616L68.6297 45.6449L76.463 53.6833L47.7686 83.3001ZM79.6019 50.4622L71.7686 42.4238L76.1852 37.9485L84.0741 46.044L79.6019 50.4622Z" fill="url(#paint5_linear_318_466)"/>
</g>
<defs>
<linearGradient id="paint0_linear_318_466" x1="13.6397" y1="21.3253" x2="55.4954" y2="21.3253" gradientUnits="userSpaceOnUse">
<stop stop-color="#FF8405"/>
<stop offset="1" stop-color="#FFAF40"/>
</linearGradient>
<linearGradient id="paint1_linear_318_466" x1="13.6397" y1="44.2369" x2="55.4954" y2="44.2369" gradientUnits="userSpaceOnUse">
<stop stop-color="#FF8405"/>
<stop offset="1" stop-color="#FFAF40"/>
</linearGradient>
<linearGradient id="paint2_linear_318_466" x1="3.20038" y1="46.0485" x2="65.9838" y2="46.0485" gradientUnits="userSpaceOnUse">
<stop stop-color="#FF8405"/>
<stop offset="1" stop-color="#FFAF40"/>
</linearGradient>
<linearGradient id="paint3_linear_318_466" x1="54.6396" y1="51.0242" x2="56.6801" y2="51.0242" gradientUnits="userSpaceOnUse">
<stop stop-color="#FF8405"/>
<stop offset="1" stop-color="#FFAF40"/>
</linearGradient>
<linearGradient id="paint4_linear_318_466" x1="13.1645" y1="66.843" x2="40.2137" y2="66.843" gradientUnits="userSpaceOnUse">
<stop stop-color="#FF8405"/>
<stop offset="1" stop-color="#FFAF40"/>
</linearGradient>
<linearGradient id="paint5_linear_318_466" x1="33.4135" y1="63.3457" x2="88.3352" y2="63.3457" gradientUnits="userSpaceOnUse">
<stop stop-color="#FF8405"/>
<stop offset="1" stop-color="#FFAF40"/>
</linearGradient>
<clipPath id="clip0_318_466">
<rect width="90" height="91.2162" fill="white" transform="translate(0.166626 0.891907)"/>
</clipPath>
</defs>
</svg>
