<svg width="150" height="35" viewBox="0 0 150 35" fill="none" xmlns="http://www.w3.org/2000/svg">
<path d="M17 0.5C7.61736 0.5 0 8.11736 0 17.5C0 26.8826 7.61736 34.5 17 34.5C26.3656 34.5 33.9697 26.9098 33.9973 17.5503C33.999 17.5336 33.9999 17.5168 34 17.5C34 17.4849 33.9993 17.4698 33.998 17.4548C33.9735 8.09288 26.3677 0.5 17 0.5ZM17 1.52C17.9438 1.52 18.8666 1.60636 19.7652 1.7631C19.9821 2.23774 21.1602 2.33974 19.9114 2.25644C19.43 2.94324 17.525 1.53462 16.2564 2.27242C15.876 2.80826 13.4684 3.3849 14.3728 4.25394C15.6604 4.02036 14.231 4.23116 14.2695 4.87036C13.6112 5.09816 12.6762 6.18616 12.6895 5.07266C12.5263 4.25734 13.4246 3.50628 11.9704 4.11726C11.8905 4.5613 9.70122 5.41606 10.7964 5.61258C11.9479 5.03458 10.3363 6.5299 11.677 5.94C10.762 6.3548 11.456 6.80734 11.0361 7.7216C9.55604 7.0297 8.874 8.34108 8.56426 9.5984C8.91514 9.63138 9.03414 9.81464 9.00014 10.0336C9.17762 10.0509 9.42854 10.0754 9.54176 10.0856C10.284 10.0288 10.9674 9.5423 11.3217 8.8334C12.1659 8.18978 12.8568 7.8202 13.8795 7.86848C13.3889 7.78518 12.7344 9.93636 13.7289 9.12206C13.3011 7.29796 15.6261 9.29818 15.1167 9.3094C14.2623 9.43588 13.9879 9.65484 14.7237 10.2716C15.2361 10.6616 15.5509 8.77832 16.1772 9.10642C16.0939 8.74772 14.6292 7.59342 14.8458 7.65394C14.8957 7.66788 15.0351 7.7471 15.302 7.91506C16.5077 8.2945 16.3101 9.84966 17.4049 10.3964C18.1665 11.3868 19.345 9.82212 20.1776 10.2968C20.2062 10.9502 20.9433 10.8839 20.9148 10.1839C21.7461 10.8204 20.8264 12.3895 19.6721 11.7618C18.5759 12.3935 17.0088 10.2614 16.3452 11.8788C16.0494 12.6417 15.0365 11.2882 14.6173 11.2593C13.1536 11.4215 14.5588 9.82858 13.5449 9.6579C12.2383 9.64668 10.8939 10.1951 9.6356 10.1135C8.95118 10.324 8.52176 10.6048 8.11274 10.8574C7.72004 11.4436 6.94824 11.8618 6.15434 12.9838C6.00882 13.2082 5.75586 13.4863 5.45462 13.8236C5.04254 15.2254 4.53764 16.6286 4.6172 18.0872C5.51582 19.0351 5.72662 21.3247 7.4919 21.1431C8.6581 21.7456 9.54142 20.7052 10.6349 21.0547C10.8365 22.1906 12.969 21.7177 12.394 22.855C11.7939 24.2136 13.5476 24.8688 13.8343 26.1054C14.5829 27.3416 12.7048 28.6302 14.213 29.6941C15.0481 31.0779 16.0157 33.1801 18.0142 32.3624C19.569 32.2628 20.52 30.9514 21.4911 30.0569C21.403 28.416 24.3671 28.5949 23.7038 26.5086C23.3128 26.2625 23.7283 25.2761 23.5134 24.927C23.7357 24.4697 24.5191 23.1671 25.277 22.5296C26.4387 21.6286 26.926 20.219 27.3095 18.8552C27.0722 17.7084 26.5309 18.8308 25.8414 18.7821C24.0067 19.4625 25.8845 17.9933 26.5751 17.5751C27.5495 17.0009 28.4974 16.0213 28.712 14.9775C29.615 14.0017 26.5316 13.0538 28.4689 13.3727C29.6939 13.1337 30.3222 12.9882 30.6357 14.1612C31.8359 14.6358 31.7404 16.8108 32.4163 17.9954C32.7665 17.5636 32.6264 17.8992 32.7753 18.4183C33.1663 17.2974 32.3425 15.4909 32.5985 14.0337C32.8512 15.1718 32.9791 16.3341 32.98 17.5C32.98 26.3315 25.8315 33.48 17 33.48C8.1685 33.48 1.02 26.3315 1.02 17.5C1.02 10.634 5.3414 4.7874 11.4138 2.52402C12.0034 2.35538 12.5936 2.18844 13.1709 1.9841C14.424 1.67586 15.7096 1.52004 17 1.52ZM20.4996 1.90862C20.6693 1.94602 20.8396 1.98274 21.0069 2.02592C20.9681 2.28262 20.7526 2.1235 20.4996 1.90862Z" fill="#FFAF40"/>
<path d="M11.9571 2.61447C11.5668 2.62161 11.1218 2.76645 11.2374 3.12821C11.4516 3.20709 11.6743 3.14861 11.884 3.09727C12.8707 2.82255 12.459 2.60495 11.9571 2.61447ZM16.7556 3.89219C17.2751 3.81569 16.7845 5.31441 15.98 4.92783C14.6615 5.06417 16.1786 4.84453 16.2265 4.23933C16.4625 4.01153 16.6359 3.90953 16.7556 3.89219ZM24.0622 6.85971C24.1608 6.87161 24.1907 6.99163 24.0543 7.27757C23.9432 7.64409 25.7305 8.83103 25.6197 9.58719C24.0326 10.0037 25.0247 8.45635 23.9911 8.14151C22.8565 7.76581 23.7667 6.82469 24.0625 6.85971H24.0622ZM19.4589 7.15653C20.0485 7.94635 20.9685 7.32687 21.8277 7.96811C22.879 9.02891 20.1705 7.82871 19.7 8.44037C18.2954 8.87251 18.9849 7.58697 19.4589 7.15653Z" fill="#FFAF40"/>
<path d="M5.72429 11.9764C5.62433 11.9614 5.54239 12.0308 5.46997 12.313C5.71137 12.3255 5.89157 12.3527 6.02111 12.3939L6.09999 12.1498C5.94937 12.0954 5.82697 11.9917 5.72429 11.9764ZM25.5732 12.1491C25.8043 12.9511 27.6013 12.824 27.1661 13.5754L26.961 13.7202C26.6102 13.4907 25.1505 12.5234 25.5732 12.1491Z" fill="#FFAF40"/>
<path d="M21.3105 13.1786C22.1394 13.744 22.7334 14.9024 23.2634 15.8102C23.9917 16.3284 24.0148 17.161 24.4874 17.8159C24.2943 18.0607 23.9169 17.6142 23.8397 17.4555C23.2084 17.0138 22.6871 15.8915 22.2407 14.9949C21.9602 14.3734 21.2758 13.8066 21.3105 13.1786ZM26.2697 26.406C26.1942 26.4009 26.0793 26.4893 25.9171 26.7116C24.7465 27.5742 23.8173 28.6007 23.7479 30.081C24.5588 30.4496 25.246 28.9641 25.6819 28.4456C26.1813 28.2039 26.5961 26.4281 26.2697 26.406Z" fill="#FFAF40"/>
<path d="M40.7 17.48C40.7 16.4533 40.8867 15.4933 41.26 14.6C41.6333 13.7067 42.1467 12.94 42.8 12.3C43.4667 11.66 44.24 11.1667 45.12 10.82C46 10.46 46.9267 10.28 47.9 10.28C48.6467 10.28 49.3733 10.38 50.08 10.58C50.8 10.78 51.4533 11.08 52.04 11.48C52.64 11.88 53.1467 12.3933 53.56 13.02C53.9867 13.6333 54.2933 14.34 54.48 15.14H50.66C50.4067 14.5533 50.0267 14.1067 49.52 13.8C49.0133 13.48 48.4333 13.32 47.78 13.32C47.2467 13.32 46.78 13.4067 46.38 13.58C45.9933 13.7533 45.6467 13.98 45.34 14.26C45.0333 14.54 44.76 14.9533 44.52 15.5C44.2933 16.0467 44.18 16.7067 44.18 17.48C44.18 18.7333 44.5133 19.7467 45.18 20.52C45.86 21.28 46.7467 21.66 47.84 21.66C48.4133 21.66 48.96 21.5333 49.48 21.28C50 21.0133 50.38 20.6667 50.62 20.24C50.8733 19.8133 51.0267 19.38 51.08 18.94H46.54V16.3H54.5C54.5933 16.6867 54.64 17.1733 54.64 17.76C54.64 18.76 54.4667 19.6933 54.12 20.56C53.7733 21.4133 53.2933 22.1533 52.68 22.78C52.0667 23.3933 51.3467 23.8667 50.52 24.2C49.6933 24.5333 48.82 24.7 47.9 24.7C46.9267 24.7 46 24.5267 45.12 24.18C44.24 23.82 43.4667 23.32 42.8 22.68C42.1467 22.0267 41.6333 21.2533 41.26 20.36C40.8867 19.4667 40.7 18.5067 40.7 17.48ZM56.732 24.5V9.24H60.152V24.5H56.732ZM68.083 13.16C68.8963 13.16 69.663 13.3067 70.383 13.6C71.103 13.88 71.723 14.28 72.243 14.8C72.7763 15.3067 73.183 15.92 73.463 16.64C73.7563 17.3467 73.903 18.1 73.903 18.9C73.903 19.7133 73.7563 20.48 73.463 21.2C73.183 21.9067 72.7763 22.5267 72.243 23.06C71.723 23.58 71.103 23.9867 70.383 24.28C69.6763 24.56 68.9163 24.7 68.103 24.7C67.2896 24.7 66.5163 24.56 65.783 24.28C65.063 23.9867 64.4363 23.58 63.903 23.06C63.383 22.5267 62.9763 21.9067 62.683 21.2C62.3896 20.48 62.243 19.7133 62.243 18.9C62.243 18.1 62.3896 17.3467 62.683 16.64C62.9763 15.92 63.383 15.3067 63.903 14.8C64.4363 14.28 65.063 13.88 65.783 13.6C66.503 13.3067 67.2696 13.16 68.083 13.16ZM68.083 16.08C67.3896 16.08 66.823 16.3467 66.383 16.88C65.9563 17.4 65.743 18.08 65.743 18.92C65.743 19.7733 65.9563 20.4667 66.383 21C66.823 21.52 67.3963 21.78 68.103 21.78C68.6363 21.78 69.083 21.6267 69.443 21.32C69.803 21.0133 70.0496 20.64 70.183 20.2C70.3296 19.7467 70.403 19.32 70.403 18.92C70.403 18.3067 70.2763 17.7733 70.023 17.32C69.783 16.8533 69.483 16.5333 69.123 16.36C68.7763 16.1733 68.4296 16.08 68.083 16.08ZM83.9894 18.92C83.9894 18.3067 83.8627 17.7733 83.6094 17.32C83.3694 16.8533 83.0694 16.5333 82.7094 16.36C82.3627 16.1733 82.016 16.08 81.6694 16.08C80.976 16.08 80.4094 16.3467 79.9694 16.88C79.5427 17.4 79.3294 18.08 79.3294 18.92C79.3294 19.7733 79.5427 20.4667 79.9694 21C80.4094 21.52 80.9827 21.78 81.6894 21.78C82.2227 21.78 82.6694 21.6267 83.0294 21.32C83.3894 21.0133 83.636 20.64 83.7694 20.2C83.916 19.7467 83.9894 19.32 83.9894 18.92ZM79.4094 14.8C79.756 14.28 80.1894 13.88 80.7094 13.6C81.2427 13.3067 81.836 13.16 82.4894 13.16C83.1827 13.16 83.836 13.3067 84.4494 13.6C85.0627 13.88 85.596 14.28 86.0494 14.8C86.5027 15.3067 86.856 15.92 87.1094 16.64C87.3627 17.3467 87.4894 18.1 87.4894 18.9C87.4894 19.7133 87.3627 20.48 87.1094 21.2C86.856 21.9067 86.5027 22.5267 86.0494 23.06C85.596 23.58 85.056 23.9867 84.4294 24.28C83.8027 24.56 83.1427 24.7 82.4494 24.7C81.1027 24.7 80.0894 24.1867 79.4094 23.16V24.5H76.0094V9.24H79.4094V14.8ZM92.3836 18.94C92.3836 19.5533 92.5036 20.0933 92.7436 20.56C92.9969 21.0133 93.2969 21.3333 93.6436 21.52C94.0036 21.6933 94.3569 21.78 94.7036 21.78C95.3969 21.78 95.9569 21.52 96.3836 21C96.8236 20.4667 97.0436 19.78 97.0436 18.94C97.0436 18.0867 96.8236 17.4 96.3836 16.88C95.9569 16.3467 95.3903 16.08 94.6836 16.08C94.1503 16.08 93.7036 16.2333 93.3436 16.54C92.9836 16.8467 92.7303 17.2267 92.5836 17.68C92.4503 18.12 92.3836 18.54 92.3836 18.94ZM96.9636 14.7V13.36H100.364V24.5H96.9636V23.06C96.6169 23.58 96.1769 23.9867 95.6436 24.28C95.1236 24.56 94.5369 24.7 93.8836 24.7C93.1903 24.7 92.5369 24.56 91.9236 24.28C91.3103 23.9867 90.7769 23.5867 90.3236 23.08C89.8703 22.56 89.5169 21.9467 89.2636 21.24C89.0103 20.52 88.8836 19.76 88.8836 18.96C88.8836 18.1467 89.0103 17.3867 89.2636 16.68C89.5169 15.96 89.8703 15.34 90.3236 14.82C90.7769 14.2867 91.3169 13.88 91.9436 13.6C92.5703 13.3067 93.2303 13.16 93.9236 13.16C95.2703 13.16 96.2836 13.6733 96.9636 14.7ZM103.158 24.5V9.24H106.578V24.5H103.158Z" fill="white"/>
<path d="M118.289 24.5V18.88H112.869V24.5H109.469V10.46H112.869V15.88H118.289V10.46H121.689V24.5H118.289ZM134.964 13.36V24.5H131.564V22.9C131.244 23.4467 130.81 23.8867 130.264 24.22C129.73 24.54 129.117 24.7 128.424 24.7C127.237 24.7 126.264 24.2667 125.504 23.4C124.757 22.52 124.384 21.3467 124.384 19.88V13.36H127.784V19.42C127.784 20.1267 127.957 20.6933 128.304 21.12C128.65 21.5333 129.104 21.74 129.664 21.74C130.237 21.74 130.697 21.5333 131.044 21.12C131.39 20.7067 131.564 20.14 131.564 19.42V13.36H134.964ZM145.747 18.92C145.747 18.3067 145.621 17.7733 145.367 17.32C145.127 16.8533 144.827 16.5333 144.467 16.36C144.121 16.1733 143.774 16.08 143.427 16.08C142.734 16.08 142.167 16.3467 141.727 16.88C141.301 17.4 141.087 18.08 141.087 18.92C141.087 19.7733 141.301 20.4667 141.727 21C142.167 21.52 142.741 21.78 143.447 21.78C143.981 21.78 144.427 21.6267 144.787 21.32C145.147 21.0133 145.394 20.64 145.527 20.2C145.674 19.7467 145.747 19.32 145.747 18.92ZM141.167 14.8C141.514 14.28 141.947 13.88 142.467 13.6C143.001 13.3067 143.594 13.16 144.247 13.16C144.941 13.16 145.594 13.3067 146.207 13.6C146.821 13.88 147.354 14.28 147.807 14.8C148.261 15.3067 148.614 15.92 148.867 16.64C149.121 17.3467 149.247 18.1 149.247 18.9C149.247 19.7133 149.121 20.48 148.867 21.2C148.614 21.9067 148.261 22.5267 147.807 23.06C147.354 23.58 146.814 23.9867 146.187 24.28C145.561 24.56 144.901 24.7 144.207 24.7C142.861 24.7 141.847 24.1867 141.167 23.16V24.5H137.767V9.24H141.167V14.8Z" fill="#A58FE9"/>
</svg>
