<svg width="91" height="93" viewBox="0 0 91 93" fill="none" xmlns="http://www.w3.org/2000/svg">
<g clip-path="url(#clip0_318_450)">
<path d="M60.6783 78.4257V87.5473C60.6783 88.8395 60.2683 89.922 59.4483 90.7946C58.6255 91.6703 57.6069 92.1081 56.3926 92.1081H4.96406C3.74977 92.1081 2.73263 91.6703 1.91263 90.7946C1.08977 89.922 0.678345 88.8395 0.678345 87.5473V51.0608C0.678345 49.7686 1.08977 48.6846 1.91263 47.809C2.73263 46.9363 3.74977 46.5 4.96406 46.5H17.8212V28.2568C17.8212 20.6554 20.3212 14.1943 25.3212 8.87333C30.3212 3.55238 36.3926 0.891907 43.5355 0.891907H60.6783C67.8212 0.891907 73.8926 3.55238 78.8926 8.87333C83.8926 14.1943 86.3926 20.6554 86.3926 28.2568V92.1081H77.8212V78.4257H60.6783ZM60.6783 69.3041H77.8212V28.2568C77.8212 23.2399 76.1426 18.9451 72.7855 15.3725C69.4283 11.7998 65.3926 10.0135 60.6783 10.0135H43.5355C38.8212 10.0135 34.7855 11.7998 31.4283 15.3725C28.0712 18.9451 26.3926 23.2399 26.3926 28.2568V46.5H56.3926C57.6069 46.5 58.6255 46.9363 59.4483 47.809C60.2683 48.6846 60.6783 49.7686 60.6783 51.0608V69.3041ZM34.9641 37.3784V28.2568H69.2498V37.3784H34.9641ZM30.6783 68.6199L52.1069 55.6216H9.24977L30.6783 68.6199ZM30.6783 76.6014L9.24977 63.6031V82.9865H52.1069V63.6031L30.6783 76.6014Z" fill="url(#paint0_linear_318_450)"/>
</g>
<defs>
<linearGradient id="paint0_linear_318_450" x1="-0.492075" y1="51.5676" x2="85.2272" y2="53.3576" gradientUnits="userSpaceOnUse">
<stop stop-color="#FF8405"/>
<stop offset="1" stop-color="#FFAF40"/>
</linearGradient>
<clipPath id="clip0_318_450">
<rect width="90" height="91.2162" fill="white" transform="translate(0.5 0.891907)"/>
</clipPath>
</defs>
</svg>
