<svg width="91" height="93" viewBox="0 0 91 93" fill="none" xmlns="http://www.w3.org/2000/svg">
<path d="M1.18188 91.7914V83.5566H10.0455C13.1478 83.5566 16.2131 83.1105 19.2415 82.2184C22.27 81.3263 25.1137 79.9882 27.7728 78.204C30.4319 79.9882 33.2756 81.292 36.304 82.1155C39.3325 82.939 42.3978 83.3507 45.5001 83.3507C48.6023 83.3507 51.6677 82.939 54.6961 82.1155C57.7245 81.292 60.5683 79.9882 63.2273 78.204C65.8864 79.9882 68.7302 81.3263 71.7586 82.2184C74.787 83.1105 77.8523 83.5566 80.9546 83.5566H89.8183V91.7914H80.9546C77.8523 91.7914 74.8239 91.4483 71.8694 90.762C68.9148 90.0758 66.0342 89.0465 63.2273 87.674C60.4205 89.0465 57.5221 90.0758 54.5321 90.762C51.5392 91.4483 48.5285 91.7914 45.5001 91.7914C42.4717 91.7914 39.4625 91.4483 36.4725 90.762C33.4795 90.0758 30.5796 89.0465 27.7728 87.674C24.966 89.0465 22.0853 90.0758 19.1308 90.762C16.1762 91.4483 13.1478 91.7914 10.0455 91.7914H1.18188Z" fill="url(#paint0_linear_318_394)"/>
<path fill-rule="evenodd" clip-rule="evenodd" d="M9.82393 75.3218L1.40348 47.7352C1.18189 46.9117 1.27348 45.951 1.67825 44.853C2.08598 43.7551 2.95461 43.0002 4.28416 42.5885L10.0455 40.7356V21.7956C10.0455 19.531 10.9142 17.5931 12.6514 15.9818C14.3858 14.3678 16.4717 13.5608 18.9092 13.5608H32.2046V1.20862H58.7955V13.5608H72.091C74.5285 13.5608 76.6159 14.3678 78.3531 15.9818C80.0875 17.5931 80.9546 19.531 80.9546 21.7956V40.7356L86.716 42.5885C88.2671 43.1375 89.1904 43.9431 89.4859 45.0054C89.7813 46.0704 89.8183 46.9804 89.5967 47.7352L81.1762 75.3218C77.483 75.3218 74.1222 74.5162 71.0938 72.9049C68.0654 71.2909 65.4433 69.3516 63.2273 67.087C61.0114 69.3516 58.3893 71.2909 55.3609 72.9049C52.3325 74.5162 49.0455 75.3218 45.5001 75.3218C41.9546 75.3218 38.6677 74.5162 35.6393 72.9049C32.6109 71.2909 29.9887 69.3516 27.7728 67.087C25.5569 69.3516 22.9347 71.2909 19.9063 72.9049C16.8779 74.5162 13.5171 75.3218 9.82393 75.3218ZM18.9092 38.0593L45.5001 30.0304L72.091 38.0593V21.7956H18.9092V38.0593ZM54.3105 63.6901C51.9085 65.9547 48.9717 67.087 45.5001 67.087C42.0285 67.087 39.1301 65.9725 36.8048 63.7437C34.4767 61.512 31.466 58.4404 27.7728 54.5289C24.2273 58.3718 21.8268 60.9109 20.5711 62.1461C19.3154 63.3813 17.8012 64.4793 16.0285 65.44L10.9319 49.1763L45.5001 38.6769L79.8467 49.1763L74.9717 65.6459C73.1989 64.6852 71.6847 63.5186 70.429 62.1461C69.1734 60.7736 66.7728 58.2346 63.2273 54.5289C59.6819 58.3718 56.7096 61.4256 54.3105 63.6901Z" fill="url(#paint1_linear_318_394)"/>
<defs>
<linearGradient id="paint0_linear_318_394" x1="4.50103" y1="86.0778" x2="84.54" y2="80.8046" gradientUnits="userSpaceOnUse">
<stop stop-color="#FF8405"/>
<stop offset="1" stop-color="#FFAF40"/>
</linearGradient>
<linearGradient id="paint1_linear_318_394" x1="4.59818" y1="44.157" x2="84.8068" y2="43.1902" gradientUnits="userSpaceOnUse">
<stop stop-color="#FF8405"/>
<stop offset="1" stop-color="#FFAF40"/>
</linearGradient>
</defs>
</svg>
