<svg width="91" height="93" viewBox="0 0 91 93" fill="none" xmlns="http://www.w3.org/2000/svg">
<g clip-path="url(#clip0_318_406)">
<path d="M38.8335 54.6443C38.8335 55.9403 38.3594 57.1833 37.5155 58.0997C36.6716 59.0161 35.527 59.5309 34.3335 59.5309C33.14 59.5309 31.9954 59.0161 31.1515 58.0997C30.3076 57.1833 29.8335 55.9403 29.8335 54.6443C29.8335 53.3483 30.3076 52.1054 31.1515 51.189C31.9954 50.2726 33.14 49.7578 34.3335 49.7578C35.527 49.7578 36.6716 50.2726 37.5155 51.189C38.3594 52.1054 38.8335 53.3483 38.8335 54.6443ZM61.3335 59.5309C62.527 59.5309 63.6716 59.0161 64.5155 58.0997C65.3594 57.1833 65.8335 55.9403 65.8335 54.6443C65.8335 53.3483 65.3594 52.1054 64.5155 51.189C63.6716 50.2726 62.527 49.7578 61.3335 49.7578C60.14 49.7578 58.9954 50.2726 58.1515 51.189C57.3076 52.1054 56.8335 53.3483 56.8335 54.6443C56.8335 55.9403 57.3076 57.1833 58.1515 58.0997C58.9954 59.0161 60.14 59.5309 61.3335 59.5309Z" fill="url(#paint0_linear_318_406)"/>
<path fill-rule="evenodd" clip-rule="evenodd" d="M16.0335 0.891907C13.3283 0.891907 10.7339 2.05887 8.82101 4.13607C6.90814 6.21327 5.8335 9.03056 5.8335 11.9682V70.6071C5.8335 71.7195 6.03525 72.8209 6.42724 73.8485C6.81922 74.8761 7.39377 75.8099 8.11806 76.5964C8.84236 77.3829 9.70223 78.0068 10.6486 78.4325C11.5949 78.8581 12.6092 79.0772 13.6335 79.0772H17.8335V83.638C17.8335 85.8844 18.6553 88.0388 20.1181 89.6273C21.5808 91.2157 23.5648 92.1081 25.6335 92.1081H34.0335C36.1022 92.1081 38.0861 91.2157 39.5489 89.6273C41.0117 88.0388 41.8335 85.8844 41.8335 83.638V79.0772H53.8335V83.638C53.8335 85.8844 54.6553 88.0388 56.1181 89.6273C57.5808 91.2157 59.5648 92.1081 61.6335 92.1081H70.0335C72.1022 92.1081 74.0861 91.2157 75.5489 89.6273C77.0117 88.0388 77.8335 85.8844 77.8335 83.638V79.0772H82.0335C83.0578 79.0772 84.0721 78.8581 85.0184 78.4325C85.9648 78.0068 86.8246 77.3829 87.5489 76.5964C88.2732 75.8099 88.8478 74.8761 89.2398 73.8485C89.6317 72.8209 89.8335 71.7195 89.8335 70.6071V11.9682C89.8335 9.03056 88.7589 6.21327 86.846 4.13607C84.9331 2.05887 82.3387 0.891907 79.6335 0.891907H16.0335ZM11.8335 11.9682C11.8335 10.7586 12.276 9.5985 13.0636 8.74318C13.8513 7.88786 14.9196 7.40735 16.0335 7.40735H79.6335C80.7474 7.40735 81.8157 7.88786 82.6033 8.74318C83.391 9.5985 83.8335 10.7586 83.8335 11.9682V70.6071C83.8335 70.8638 83.7869 71.118 83.6965 71.3552C83.606 71.5923 83.4734 71.8078 83.3063 71.9893C83.1391 72.1708 82.9407 72.3148 82.7223 72.413C82.5039 72.5112 82.2699 72.5618 82.0335 72.5618H77.8335V44.9363C77.833 43.4658 77.6142 42.005 77.1855 40.6101L72.7755 26.2305C72.2577 24.5431 71.2638 23.0756 69.9349 22.0359C68.606 20.9963 67.0094 20.4373 65.3715 20.4382H30.2955C28.6576 20.4373 27.061 20.9963 25.7321 22.0359C24.4032 23.0756 23.4093 24.5431 22.8915 26.2305L18.4815 40.6101C18.0528 42.005 17.834 43.4658 17.8335 44.9363V72.5618H13.6335C13.1561 72.5618 12.6983 72.3559 12.3607 71.9893C12.0231 71.6227 11.8335 71.1255 11.8335 70.6071V11.9682ZM23.8335 46.5V72.5618H71.8335V46.5H23.8335ZM28.5855 28.2893L24.9975 39.9846H70.6695L67.0815 28.2893C66.9618 27.8999 66.7321 27.5613 66.4252 27.3215C66.1183 27.0818 65.7496 26.9531 65.3715 26.9537H30.2955C29.9174 26.9531 29.5487 27.0818 29.2418 27.3215C28.9349 27.5613 28.7052 27.8999 28.5855 28.2893ZM35.8335 79.0772V83.638C35.8335 83.8947 35.7869 84.1489 35.6965 84.386C35.606 84.6232 35.4734 84.8387 35.3063 85.0202C35.1391 85.2017 34.9407 85.3457 34.7223 85.4439C34.5039 85.5421 34.2699 85.5927 34.0335 85.5927H25.6335C25.3971 85.5927 25.1631 85.5421 24.9447 85.4439C24.7263 85.3457 24.5278 85.2017 24.3607 85.0202C24.1936 84.8387 24.061 84.6232 23.9705 84.386C23.8801 84.1489 23.8335 83.8947 23.8335 83.638V79.0772H35.8335ZM59.8335 79.0772V83.638C59.8335 83.8947 59.8801 84.1489 59.9705 84.386C60.061 84.6232 60.1936 84.8387 60.3607 85.0202C60.5278 85.2017 60.7263 85.3457 60.9447 85.4439C61.1631 85.5421 61.3971 85.5927 61.6335 85.5927H70.0335C70.2699 85.5927 70.5039 85.5421 70.7223 85.4439C70.9407 85.3457 71.1391 85.2017 71.3063 85.0202C71.4734 84.8387 71.606 84.6232 71.6965 84.386C71.7869 84.1489 71.8335 83.8947 71.8335 83.638V79.0772H59.8335Z" fill="url(#paint1_linear_318_406)"/>
</g>
<defs>
<linearGradient id="paint0_linear_318_406" x1="29.6356" y1="53.3556" x2="64.8444" y2="53.3556" gradientUnits="userSpaceOnUse">
<stop stop-color="#FF8405"/>
<stop offset="1" stop-color="#FFAF40"/>
</linearGradient>
<linearGradient id="paint1_linear_318_406" x1="5.37168" y1="34.4715" x2="87.5255" y2="34.4715" gradientUnits="userSpaceOnUse">
<stop stop-color="#FF8405"/>
<stop offset="1" stop-color="#FFAF40"/>
</linearGradient>
<clipPath id="clip0_318_406">
<rect width="90" height="91.2162" fill="white" transform="translate(0.833374 0.891907)"/>
</clipPath>
</defs>
</svg>
