<svg width="91" height="93" viewBox="0 0 91 93" fill="none" xmlns="http://www.w3.org/2000/svg">
<g clip-path="url(#clip0_318_428)">
<path d="M45.1977 11.1428L9.46239 27.4206V81.5953H18.3962V51.0744C18.3962 48.2766 19.2717 45.8807 21.0228 43.8867C22.7708 41.896 24.8732 40.9007 27.33 40.9007H63.0653C65.5221 40.9007 67.626 41.896 69.3771 43.8867C71.1251 45.8807 71.9992 48.2766 71.9992 51.0744V81.5953H80.933V27.4206L45.1977 11.1428ZM27.33 91.769H9.46239C7.00559 91.769 4.90316 90.7736 3.15511 88.783C1.40408 86.789 0.528564 84.3931 0.528564 81.5953V27.4206C0.528564 25.3011 1.03184 23.3935 2.03838 21.6979C3.04195 20.0023 4.39989 18.773 6.1122 18.01L41.8475 1.73214C42.8898 1.22346 44.0065 0.969116 45.1977 0.969116C46.3889 0.969116 47.5056 1.22346 48.5479 1.73214L84.2832 18.01C85.9955 18.773 87.3549 20.0023 88.3615 21.6979C89.365 23.3935 89.8668 25.3011 89.8668 27.4206V81.5953C89.8668 84.3931 88.9928 86.789 87.2447 88.783C85.4937 90.7736 83.3898 91.769 80.933 91.769H63.0653V51.0744H27.33V91.769ZM31.7969 91.769V81.5953H40.7308V91.769H31.7969ZM40.7308 76.5085V66.3348H49.6646V76.5085H40.7308ZM49.6646 91.769V81.5953H58.5984V91.769H49.6646ZM63.0653 40.9007H27.33H63.0653Z" fill="url(#paint0_linear_318_428)"/>
</g>
<defs>
<linearGradient id="paint0_linear_318_428" x1="0.35805" y1="46.5" x2="90.2481" y2="46.5" gradientUnits="userSpaceOnUse">
<stop stop-color="#FF8405"/>
<stop offset="1" stop-color="#FFAF40"/>
</linearGradient>
<clipPath id="clip0_318_428">
<rect width="90" height="91.2162" fill="white" transform="translate(0.499878 0.891846)"/>
</clipPath>
</defs>
</svg>
